<svg xmlns="http://www.w3.org/2000/svg" width="16" height="12" viewBox="0 0 16 12">
  <path id="Path_439" data-name="Path 439" d="M15.687,36.969a.154.154,0,0,1,.2-.031.2.2,0,0,1,.109.188V43.5A1.494,1.494,0,0,1,14.5,45H1.5a1.447,1.447,0,0,1-1.062-.437A1.447,1.447,0,0,1,0,43.5V37.125a.171.171,0,0,1,.109-.172.2.2,0,0,1,.2.016q1.031.781,4.812,3.531l.312.281a12.431,12.431,0,0,0,1.187.812A2.927,2.927,0,0,0,8,42a2.774,2.774,0,0,0,1.375-.437,8.726,8.726,0,0,0,1.187-.812l.312-.25Q14.562,37.844,15.687,36.969ZM8,41a2,2,0,0,1-1-.375,7.447,7.447,0,0,1-.969-.687l-.312-.219Q1.875,36.906.5,35.844l-.219-.156A.712.712,0,0,1,0,35.094V34.5a1.447,1.447,0,0,1,.437-1.062A1.447,1.447,0,0,1,1.5,33h13A1.494,1.494,0,0,1,16,34.5v.594a.712.712,0,0,1-.281.594l-.156.125q-1.344,1.062-5.281,3.906l-.312.219A7.447,7.447,0,0,1,9,40.625,2,2,0,0,1,8,41Z" transform="translate(0 -33)" />
</svg>
