<svg xmlns="http://www.w3.org/2000/svg" width="15.99" height="15.99" viewBox="0 0 15.99 15.99">
  <path id="Path_440" data-name="Path 440" d="M15.406-13.219a.593.593,0,0,1,.437.25A.792.792,0,0,1,16-12.5a14.262,14.262,0,0,1-1.969,7.312A14.569,14.569,0,0,1,8.812.031,14.262,14.262,0,0,1,1.5,2a.792.792,0,0,1-.469-.156.593.593,0,0,1-.25-.437l-.75-3.25a.705.705,0,0,1,.062-.5.673.673,0,0,1,.375-.344l3.5-1.5a.793.793,0,0,1,.469-.047.628.628,0,0,1,.406.266L6.375-2.094A10.985,10.985,0,0,0,9.641-4.375a11.481,11.481,0,0,0,2.266-3.25L10.031-9.187a.748.748,0,0,1-.25-.391.779.779,0,0,1,.031-.484l1.5-3.5a.689.689,0,0,1,.344-.344.705.705,0,0,1,.5-.062Z" transform="translate(-0.01 13.99)" />
</svg>
