<svg xmlns="http://www.w3.org/2000/svg" xmlns:xlink="http://www.w3.org/1999/xlink" width="1400" height="566" viewBox="0 0 1400 566"><defs><clipPath id="a"><rect width="1400" height="566" transform="translate(0 0.208)" fill="#47c16d"/></clipPath></defs><g transform="translate(0 -0.208)" clip-path="url(#a)"><path d="M0,0H1400.2V682.531H0Z" transform="translate(0 -1.512)" fill="#0093b2" opacity="0.227"/><rect width="1400" height="682.42" transform="translate(0 -1.488)" fill="#0093b2"/><path d="M117.931,758.08c0-17.628,13.925-31.918,31.1-31.918s31.1,14.291,31.1,31.918S166.211,790,149.035,790,117.931,775.709,117.931,758.08ZM0,758.08c0-17.628,13.925-31.918,31.1-31.918s31.1,14.291,31.1,31.918S48.28,790,31.1,790,0,775.709,0,758.08Zm177.545-90.437c0-17.629,13.925-31.92,31.1-31.92s31.1,14.291,31.1,31.92-13.926,31.918-31.1,31.918S177.545,685.271,177.545,667.643Zm-117.931,0c0-17.629,13.925-31.92,31.1-31.92s31.1,14.291,31.1,31.92-13.925,31.918-31.1,31.918S59.614,685.271,59.614,667.643Zm176.249-90.438c0-17.628,13.925-31.918,31.1-31.918s31.1,14.291,31.1,31.918-13.926,31.92-31.1,31.92S235.863,594.834,235.863,577.205Zm-117.931,0c0-17.628,13.925-31.918,31.1-31.918s31.1,14.291,31.1,31.918-13.925,31.92-31.1,31.92S117.931,594.834,117.931,577.205Zm177.545-90.437c0-17.629,13.925-31.92,31.1-31.92s31.1,14.291,31.1,31.92-13.925,31.918-31.1,31.918S295.476,504.4,295.476,486.768Zm-117.931,0c0-17.629,13.925-31.92,31.1-31.92s31.1,14.291,31.1,31.92-13.926,31.918-31.1,31.918S177.545,504.4,177.545,486.768ZM353.794,395c0-17.629,13.925-31.92,31.1-31.92S416,377.371,416,395s-13.925,31.92-31.1,31.92S353.794,412.629,353.794,395Zm-117.931,0c0-17.629,13.925-31.92,31.1-31.92s31.1,14.291,31.1,31.92-13.926,31.92-31.1,31.92S235.863,412.629,235.863,395Zm59.614-91.768c0-17.628,13.925-31.918,31.1-31.918s31.1,14.291,31.1,31.918-13.925,31.92-31.1,31.92S295.476,320.861,295.476,303.232Zm-117.931,0c0-17.628,13.925-31.918,31.1-31.918s31.1,14.291,31.1,31.918-13.926,31.92-31.1,31.92S177.545,320.861,177.545,303.232Zm58.318-90.437c0-17.629,13.925-31.92,31.1-31.92s31.1,14.291,31.1,31.92-13.926,31.918-31.1,31.918S235.863,230.423,235.863,212.795Zm-117.931,0c0-17.629,13.925-31.92,31.1-31.92s31.1,14.291,31.1,31.92-13.925,31.918-31.1,31.918S117.931,230.423,117.931,212.795Zm59.614-90.438c0-17.628,13.925-31.918,31.1-31.918s31.1,14.291,31.1,31.918-13.926,31.92-31.1,31.92S177.545,139.986,177.545,122.357Zm-117.931,0c0-17.628,13.925-31.918,31.1-31.918s31.1,14.291,31.1,31.918-13.925,31.92-31.1,31.92S59.614,139.986,59.614,122.357ZM117.931,31.92c0-17.629,13.925-31.92,31.1-31.92s31.1,14.291,31.1,31.92-13.925,31.918-31.1,31.918S117.931,49.547,117.931,31.92ZM0,31.92C0,14.291,13.925,0,31.1,0s31.1,14.291,31.1,31.92S48.28,63.838,31.1,63.838,0,49.547,0,31.92Z" transform="translate(420 -202.792)" fill="#0d4059" opacity="0.1"/></g></svg>