<svg xmlns="http://www.w3.org/2000/svg" width="82.492" height="61.092" viewBox="0 0 82.492 61.092"><path d="M85.714,27.574q0,9.412-6.527,20.024T55.612,67l-2.131-4A102.053,102.053,0,0,0,66.09,52.881q7.192-7.37,7.192-14.119,0-2.309-1.332-3.019a4.683,4.683,0,0,0-2.309-.8,43.743,43.743,0,0,1-4.44.444,11.871,11.871,0,0,1-9.324-4.129,14.581,14.581,0,0,1-3.641-9.99,15.69,15.69,0,0,1,4-10.966q4-4.4,11.011-4.4a16.819,16.819,0,0,1,13.364,5.9Q85.714,17.718,85.714,27.574Zm-49.016,0q0,9.945-6.926,20.512T6.6,67L4.466,63A93.968,93.968,0,0,0,16.72,53.148q7.548-7.548,7.548-14.03a4.515,4.515,0,0,0-.977-3.019,3.306,3.306,0,0,0-2.664-1.154,43.743,43.743,0,0,1-4.44.444A11.965,11.965,0,0,1,6.908,31.3,14.434,14.434,0,0,1,3.223,21.27q0-6.926,4.085-11.144t11.1-4.218a16.662,16.662,0,0,1,13.142,5.9Q36.7,17.718,36.7,27.574Z" transform="translate(-3.223 -5.908)" fill="#121212" opacity="0.05"/></svg>