<svg xmlns="http://www.w3.org/2000/svg" width="241" height="458" viewBox="0 0 241 458">
  <path id="Testimonial_arrow" d="M68.321,439.495A18.025,18.025,0,1,1,86.34,458,18.267,18.267,0,0,1,68.321,439.495ZM0,439.495a18.267,18.267,0,0,1,18.019-18.5,18.512,18.512,0,0,1,0,37.01A18.267,18.267,0,0,1,0,439.495Zm102.857-52.431a18.025,18.025,0,1,1,18.019,18.5A18.267,18.267,0,0,1,102.857,387.064Zm-68.321,0a18.025,18.025,0,1,1,18.019,18.5A18.267,18.267,0,0,1,34.536,387.064Zm102.106-52.431a18.025,18.025,0,1,1,18.019,18.505A18.267,18.267,0,0,1,136.642,334.633Zm-68.321,0A18.025,18.025,0,1,1,86.34,353.138,18.267,18.267,0,0,1,68.321,334.633ZM171.177,282.2a18.025,18.025,0,1,1,18.019,18.5A18.267,18.267,0,0,1,171.177,282.2Zm-68.321,0a18.025,18.025,0,1,1,18.019,18.5A18.267,18.267,0,0,1,102.857,282.2ZM204.962,229a18.025,18.025,0,1,1,18.019,18.505A18.267,18.267,0,0,1,204.962,229Zm-68.321,0a18.025,18.025,0,1,1,18.019,18.505A18.267,18.267,0,0,1,136.642,229Zm34.536-53.2A18.025,18.025,0,1,1,189.2,194.3,18.267,18.267,0,0,1,171.177,175.8Zm-68.321,0A18.025,18.025,0,1,1,120.876,194.3,18.267,18.267,0,0,1,102.857,175.8Zm33.785-52.431a18.025,18.025,0,1,1,18.019,18.5A18.267,18.267,0,0,1,136.642,123.367Zm-68.321,0a18.025,18.025,0,1,1,18.019,18.5A18.267,18.267,0,0,1,68.321,123.367Zm34.536-52.431a18.025,18.025,0,1,1,18.019,18.505A18.267,18.267,0,0,1,102.857,70.936Zm-68.321,0A18.025,18.025,0,1,1,52.555,89.441,18.267,18.267,0,0,1,34.536,70.936ZM68.321,18.505a18.025,18.025,0,1,1,36.037,0,18.025,18.025,0,1,1-36.037,0ZM0,18.505A18.267,18.267,0,0,1,18.019,0,18.267,18.267,0,0,1,36.037,18.505a18.266,18.266,0,0,1-18.018,18.5A18.267,18.267,0,0,1,0,18.505Z" fill="#0093b2" opacity="0.2"/>
</svg>
