<svg height='100px' width='100px'  fill="#ffffff" xmlns="http://www.w3.org/2000/svg" xmlns:xlink="http://www.w3.org/1999/xlink" version="1.1" x="0px" y="0px" viewBox="0 0 100 100" enable-background="new 0 0 100 100" xml:space="preserve"><g><polygon points="82.43,76.8 67.45,91.78 67.45,76.8  "></polygon><path d="M16.09,6.74v86.52h49.26v-17.5c0-0.58,0.471-1.05,1.051-1.05h17.51V6.74H16.09z M38.27,13.28h23.46   c0.579,0,1.05,0.47,1.05,1.05c0,0.57-0.471,1.04-1.05,1.04H38.27c-0.57,0-1.04-0.47-1.04-1.04C37.23,13.75,37.69,13.28,38.27,13.28   z M43.47,72.86v13.25c0,0.02-0.01,0.029-0.01,0.06c0,0.04,0,0.07-0.01,0.11c0,0.029-0.01,0.069-0.02,0.1   c-0.01,0.03-0.02,0.061-0.03,0.101c-0.02,0.029-0.03,0.069-0.05,0.1c-0.01,0.02-0.02,0.04-0.03,0.06c0,0.011-0.01,0.021-0.02,0.03   c-0.01,0.01-0.02,0.03-0.03,0.04c-0.03,0.05-0.06,0.09-0.1,0.12c0,0.01-0.01,0.01-0.01,0.02c-0.04,0.04-0.09,0.08-0.14,0.11   c-0.01,0.01-0.02,0.021-0.04,0.03c-0.04,0.02-0.08,0.05-0.13,0.069c-0.01,0-0.02,0.011-0.03,0.011c-0.05,0.029-0.11,0.04-0.17,0.05   c-0.01,0.01-0.03,0.01-0.04,0.01c-0.06,0.01-0.13,0.021-0.19,0.021s-0.12-0.011-0.19-0.021c-0.01,0-0.02,0-0.04-0.01   c-0.06-0.01-0.12-0.021-0.17-0.05c-0.01,0-0.01,0-0.02-0.011c-0.03-0.01-0.07-0.029-0.11-0.05l-6.53-3.85l-6.53,3.85   c-0.04,0.021-0.08,0.03-0.11,0.05c-0.01,0-0.01,0.011-0.02,0.011c-0.06,0.029-0.11,0.04-0.17,0.05c-0.02,0.01-0.03,0.01-0.05,0.01   c-0.06,0.01-0.12,0.021-0.18,0.021c-0.07,0-0.13-0.011-0.19-0.021c-0.02,0-0.03,0-0.04-0.01c-0.06-0.01-0.12-0.021-0.17-0.05   c-0.01,0-0.02-0.011-0.03-0.011c-0.05-0.02-0.09-0.05-0.14-0.069c-0.01-0.01-0.02-0.021-0.03-0.03c-0.05-0.03-0.1-0.07-0.14-0.11   c-0.01-0.01-0.01-0.01-0.01-0.01c-0.04-0.04-0.07-0.08-0.11-0.13c0-0.01-0.01-0.03-0.02-0.04c-0.01-0.01-0.02-0.02-0.03-0.03   c-0.01-0.02-0.01-0.04-0.02-0.06c-0.02-0.04-0.04-0.07-0.05-0.1c-0.01-0.04-0.02-0.07-0.03-0.101c-0.01-0.03-0.02-0.07-0.02-0.1   c-0.01-0.04-0.01-0.07-0.01-0.11c-0.01-0.03-0.01-0.04-0.01-0.06V72.86c-1.39-1.761-2.23-3.98-2.23-6.391   c0-5.7,4.64-10.33,10.34-10.33c5.69,0,10.33,4.63,10.33,10.33C45.69,68.88,44.86,71.1,43.47,72.86z M75.68,64.4H52.09   c-0.58,0-1.05-0.471-1.05-1.051c0-0.569,0.47-1.04,1.05-1.04h23.59c0.58,0,1.04,0.471,1.04,1.04C76.72,63.93,76.26,64.4,75.68,64.4   z M75.68,58.27H52.09c-0.58,0-1.05-0.47-1.05-1.039c0-0.58,0.47-1.051,1.05-1.051h23.59c0.58,0,1.04,0.471,1.04,1.051   C76.72,57.8,76.26,58.27,75.68,58.27z M75.68,52.14H44.64c-0.58,0-1.04-0.46-1.04-1.04s0.46-1.05,1.04-1.05h31.04   c0.58,0,1.04,0.47,1.04,1.05S76.26,52.14,75.68,52.14z M75.68,46.02H24.32c-0.58,0-1.04-0.47-1.04-1.05c0-0.58,0.46-1.05,1.04-1.05   h51.36c0.58,0,1.04,0.47,1.04,1.05C76.72,45.55,76.26,46.01,75.68,46.02z M75.68,39.89H24.32c-0.58,0-1.04-0.47-1.04-1.05   s0.46-1.05,1.04-1.05h51.36c0.58,0,1.04,0.47,1.04,1.05S76.26,39.89,75.68,39.89z M75.68,33.76H24.32c-0.58,0-1.04-0.47-1.04-1.05   s0.46-1.04,1.04-1.04h51.36c0.58,0,1.04,0.46,1.04,1.04S76.26,33.76,75.68,33.76z M75.68,27.63H24.32c-0.58,0-1.04-0.47-1.04-1.05   c0-0.57,0.46-1.04,1.04-1.04h51.36c0.58,0,1.04,0.47,1.04,1.04C76.72,27.16,76.26,27.63,75.68,27.63z M75.68,21.5H24.32   c-0.58,0-1.04-0.47-1.04-1.05c0-0.57,0.46-1.04,1.04-1.04h51.36c0.58,0,1.04,0.47,1.04,1.04C76.72,21.03,76.26,21.5,75.68,21.5z"></path><path d="M41.37,74.86v9.409l-5.48-3.22c-0.02-0.01-0.03-0.01-0.04-0.02c-0.04-0.021-0.07-0.03-0.1-0.05   c-0.03-0.011-0.07-0.021-0.1-0.03c-0.03-0.01-0.06-0.021-0.09-0.021c-0.04-0.01-0.07-0.02-0.11-0.02   c-0.03-0.01-0.06-0.01-0.09-0.01c-0.04,0-0.07,0-0.11,0.01c-0.03,0-0.06,0.01-0.1,0.02c-0.03,0-0.06,0.011-0.09,0.021   c-0.03,0.01-0.07,0.02-0.09,0.03c-0.04,0.02-0.07,0.029-0.11,0.05c-0.01,0.01-0.02,0.01-0.04,0.02l-5.48,3.22V74.86   c1.7,1.22,3.77,1.939,6.02,1.939C37.6,76.8,39.68,76.08,41.37,74.86z"></path><path d="M43.6,66.47c0,4.54-3.7,8.24-8.24,8.24c-4.55,0-8.24-3.7-8.24-8.24s3.69-8.239,8.24-8.239   C39.9,58.23,43.6,61.93,43.6,66.47z"></path></g></svg>