<svg height='100px' width='100px'  fill="#111111" xmlns="http://www.w3.org/2000/svg" viewBox="0 0 68 68" x="0px" y="0px"><path fill="#111111" fill-rule="evenodd" d="M321,788.876337 L321,788.876337 C320.591952,789.171574 320.015739,789.117312 319.666371,788.733008 L318.333629,787.266992 C317.952886,786.848175 317.985436,786.219409 318.393476,785.848464 L322,782.569806 L322,777.002929 C322,776.437881 322.45191,776 323.009369,776 L324.990631,776 C325.556647,776 326,776.449027 326,777.002929 L326,778.933442 L328.654654,776.52012 C329.417497,775.826627 330.582503,775.826627 331.345346,776.52012 L341.606524,785.848464 C342.016137,786.22084 342.041358,786.854506 341.666371,787.266992 L340.333629,788.733008 C339.978904,789.123206 339.407617,789.172639 339,788.876485 L339,795 L362,795 C363.104569,795 364,795.895431 364,797 L364,801 L360.002929,801 C359.449027,801 359,801.443353 359,802.009369 L359,803.990631 C359,804.54809 359.437881,805 360.002929,805 L364,805 L363.997071,832 L359.002929,832 C358.449027,832 358,832.443353 358,833.009369 L358,834.990631 C358,835.54809 358.437881,836 359.002929,836 L364,835.999996 L364,842 C364,843.104569 363.104569,844 362,844 L298,844 C296.895431,844 296,843.104569 296,842 L296,821 L299.997071,821 C300.550973,821 301,820.556647 301,819.990631 L301,818.009369 C301,817.45191 300.562119,817 299.997071,817 L296,817 L296,797 C296,795.895431 296.895431,795 298,795 L321,795 L321,788.876337 Z M332,795 L335,795 L335,785.248376 L330,780.702922 L325,785.248376 L325,795 L328,795 L328,803 L315.99922,803 C311.581496,803 308,806.584082 308,811.004023 L308,823.995977 C308,828.416676 311.580783,832 315.99922,832 L344.00078,832 C348.418504,832 352,828.415918 352,823.995977 L352,823 L355.997071,823 C356.550973,823 357,822.556647 357,821.990631 L357,820.009369 C357,819.45191 356.562119,819 355.997071,819 L352,819 L352,811.004023 C352,806.583324 348.419217,803 344.00078,803 L332,803 L332,795 Z M303,835.990631 C303,836.54809 303.437881,837 304.002929,837 L308.997071,837 C309.550973,837 310,836.556647 310,835.990631 L310,834.009369 C310,833.45191 309.562119,833 308.997071,833 L304.002929,833 C303.449027,833 303,833.443353 303,834.009369 L303,835.990631 Z M333,839.990631 C333,840.54809 333.437881,841 334.002929,841 L338.997071,841 C339.550973,841 340,840.556647 340,839.990631 L340,838.009369 C340,837.45191 339.562119,837 338.997071,837 L334.002929,837 C333.449027,837 333,837.443353 333,838.009369 L333,839.990631 Z M300,804.990631 C300,805.54809 300.437881,806 301.002929,806 L305.997071,806 C306.550973,806 307,805.556647 307,804.990631 L307,803.009369 C307,802.45191 306.562119,802 305.997071,802 L301.002929,802 C300.449027,802 300,802.443353 300,803.009369 L300,804.990631 Z M348,815.0217 L348,815.0217 C347.757845,815.173751 347.448225,815.346581 347.069753,815.525858 C343.378609,817.274294 338.050535,817.274294 330.787839,814.16171 C322.94088,810.798728 316.677873,810.617903 312,812.515728 L312,811.004023 C312,808.792575 313.791281,807 315.99922,807 L344.00078,807 C346.209443,807 348,808.791828 348,811.004023 L348,815.0217 Z M348,819.484272 L348,823.995977 C348,826.207425 346.208719,828 344.00078,828 L315.99922,828 C313.790557,828 312,826.208172 312,823.995977 L312,816.9783 C312.242155,816.826249 312.551775,816.653419 312.930247,816.474142 C316.621391,814.725706 321.949465,814.725706 329.212161,817.83829 C337.05912,821.201272 343.322127,821.382097 348,819.484272 L348,819.484272 Z" transform="translate(-296 -776)"></path></svg>