<svg height='100px' width='100px'  fill="#111111" xmlns="http://www.w3.org/2000/svg" xmlns:xlink="http://www.w3.org/1999/xlink" version="1.1" x="0px" y="0px" viewBox="0 0 95 95" enable-background="new 0 0 95 95" xml:space="preserve"><path d="M89.252,29.121C86.82,6.8,62.111-0.311,47.5,14.503C32.888-0.311,8.18,6.8,5.748,29.121  C3.315,51.429,47.466,88.251,47.494,88.286H47.5C47.534,88.251,91.684,51.429,89.252,29.121z M71.195,50.523  c0,3.341-2.668,6.059-5.945,6.059h-3.691V53.02h3.691c1.314,0,2.383-1.12,2.383-2.497v-8.876c0-1.378-1.068-2.497-2.383-2.497  l-4.867-0.036c-3.277,0-5.944-2.718-5.944-6.059l-0.004-4.721c0-1.314-1.12-2.383-2.497-2.383h-8.876  c-1.377,0-2.497,1.068-2.497,2.383l0.031,13.637c0,1.146,0.854,2.106,1.985,2.333h9.842c2.905,0.208,5.248,2.435,5.573,5.254  l0.041,4.365h-0.041v9.912c0,3.277-2.718,5.944-6.059,5.944h-8.876c-3.341,0-6.059-2.667-6.059-5.944v-5.307  c-0.191-1.023-1.067-1.823-2.159-1.947H29.75c-3.278,0-5.945-2.718-5.945-6.059v-8.876c0-3.341,2.667-6.06,5.945-6.06h3.691v3.563  H29.75c-1.314,0-2.384,1.119-2.384,2.497v8.876c0,1.377,1.069,2.497,2.384,2.497H35c2.899,0.212,5.236,2.433,5.564,5.246v5.569  c0,1.314,1.12,2.383,2.497,2.383h8.876c1.377,0,2.497-1.068,2.497-2.383V49.819c-0.188-1.028-1.068-1.83-2.165-1.953h-9.955  c-2.975-0.377-5.28-2.876-5.28-5.895l-0.031-13.637c0-3.277,2.718-5.944,6.059-5.944h8.876c3.341,0,6.059,2.667,6.059,5.944  L58,33.055c0,1.377,1.069,2.497,2.383,2.497l4.867,0.035c3.277,0,5.945,2.719,5.945,6.06V50.523z"></path></svg>