<svg height='100px' width='100px'  fill="#111111" xmlns:x="http://ns.adobe.com/Extensibility/1.0/" xmlns:i="http://ns.adobe.com/AdobeIllustrator/10.0/" xmlns:graph="http://ns.adobe.com/Graphs/1.0/" xmlns="http://www.w3.org/2000/svg" xmlns:xlink="http://www.w3.org/1999/xlink" version="1.1" x="0px" y="0px" viewBox="0 0 100 100" style="enable-background:new 0 0 100 100;" xml:space="preserve"><g><g i:extraneous="self"><g><path d="M66.5,2.5C50.2,2.5,36.9,15,35.6,30.9c2.1,0.1,4.2,0.4,6.2,0.9C42.7,19,53.4,8.8,66.5,8.8c13.6,0,24.7,11.1,24.7,24.7     c0,13-10.2,23.7-23,24.6c0.5,2,0.8,4.1,0.9,6.2C85,63,97.4,49.6,97.4,33.5C97.4,16.4,83.5,2.5,66.5,2.5z"></path><path d="M78.9,34.1v-1.1c0-1-0.8-1.8-1.8-1.8h-8.8l-3.6-14.8c-0.2-1-1.2-1.5-2.2-1.3l-1.1,0.3c-1,0.2-1.5,1.2-1.3,2.1l4.2,17     c0.2,0.8,0.9,1.4,1.7,1.4h11.1C78.1,35.8,78.9,35,78.9,34.1z"></path><path d="M33.5,35.6c-17.1,0-31,13.9-31,31s13.9,31,31,31c17.1,0,31-13.9,31-31S50.6,35.6,33.5,35.6z M35.5,82.2v3.5     c0,0.2-0.2,0.4-0.4,0.4h-2.8c-0.2,0-0.4-0.2-0.4-0.4v-3.5c-4.6-0.5-7.5-2.9-8.3-3.8c-0.2-0.2-0.2-0.4-0.1-0.6l2.5-3.5     c0.2-0.2,0.4-0.2,0.6-0.1c1,0.8,3.8,2.9,7.3,2.9c2.3,0,4.4-1.2,4.4-3.7c0-5.2-14.6-4.7-14.6-13.9c0-4.4,3.3-7.9,8.1-8.7v-3.6     c0-0.2,0.2-0.4,0.4-0.4H35c0.2,0,0.4,0.2,0.4,0.4v3.5c4.1,0.4,6.6,2.2,7.3,2.9c0.2,0.1,0.2,0.4,0.1,0.5l-2,3.7     c-0.1,0.2-0.4,0.3-0.7,0.1c-0.9-0.7-3.4-2.3-6.4-2.3c-2.6,0-4.6,1.5-4.6,3.7c0,5.1,14.5,4.2,14.5,13.9     C43.8,77.8,40.7,81.5,35.5,82.2z"></path></g></g></g></svg>