<svg height='100px' width='100px'  fill="#111111" xmlns="http://www.w3.org/2000/svg" xmlns:xlink="http://www.w3.org/1999/xlink" version="1.1" x="0px" y="0px" viewBox="0 0 512 512" style="enable-background:new 0 0 512 512;" xml:space="preserve"><title>Prove-businessanalysis-scan-check-investigate</title><path d="M232,112h-24v82.3c7.3-6.2,15.4-11.3,24-15.5V112z"></path><path d="M280,88v80c8.1,0,16.1,0.9,24,2.6V88H280z"></path><path d="M334.5,377.8c-54,30.1-122.2,10.7-152.3-43.3c-14.7-26.4-18.1-57.6-9.5-86.5H96v-16h24V128h56v104h2.8  c3.6-7.5,8-14.6,13.2-21.2V96h56v76.7c5.2-1.6,10.6-2.7,16-3.5V72h56v103.4c5.5,2.1,10.9,4.7,16,7.6V48h56v184h24v16h-28.7  c8.6,28.9,5.2,60.1-9.5,86.5l54.2,54.2V48c0-5.6,1.5-11.1,4.3-16H88c-4.4,0-8,3.6-8,8v392h308.7L334.5,377.8z M96,264h56v16H96V264z   M96,304h56v16H96V304z M96,344h72v16H96V344z M208,400H96v-16h112V400z"></path><path d="M280,376c53,0,96-43,96-96s-43-96-96-96s-96,43-96,96C184.1,333,227,375.9,280,376z M297.8,358l-3.5-15.6  c24-5.5,42.7-24.2,48.2-48.2l15.6,3.5C351.1,327.7,327.7,351.1,297.8,358z M355.4,253.3c3,8.6,4.6,17.6,4.6,26.7h-16  c0-7.3-1.2-14.5-3.6-21.3L355.4,253.3z M229.7,282.3l18.3,18.3l74.3-74.3l11.3,11.3L248,323.3l-29.7-29.7L229.7,282.3z"></path><rect x="136" y="144" width="24" height="88"></rect><path d="M368.8,348.1c-6,7.8-12.9,14.7-20.7,20.7L455,475.7c5.7,5.7,15,5.7,20.7,0s5.7-15,0-20.7L368.8,348.1z"></path><path d="M464,32c-8.8,0-16,7.2-16,16v48h32V48C480,39.2,472.8,32,464,32z"></path><path d="M32,448v16c0,8.8,7.2,16,16,16h388.7l-32-32H32z"></path><path d="M376,64h-24v130.3c9.5,8,17.6,17.5,24,28.1V64z"></path></svg>