<svg height='100px' width='100px'  fill="#111111" xmlns:x="http://ns.adobe.com/Extensibility/1.0/" xmlns:i="http://ns.adobe.com/AdobeIllustrator/10.0/" xmlns:graph="http://ns.adobe.com/Graphs/1.0/" xmlns="http://www.w3.org/2000/svg" xmlns:xlink="http://www.w3.org/1999/xlink" version="1.1" x="0px" y="0px" viewBox="0 0 100 100" style="enable-background:new 0 0 100 100;" xml:space="preserve"><g><g i:extraneous="self"><g><path d="M96.9,55l-8-12.3c-0.4-0.7-0.7-1.6-0.7-2.4c-1.4-16-14.8-28.6-31.1-28.7c2.3,3.3,3.6,7.1,3.6,11.1     c0,6.2-3.1,12.1-8.7,16.4c0.4,0.6,1,1.4,1.6,2.1c1.8,2.1,2.2,4.8,1.1,7.3c-1.1,2.4-3.5,4-6.1,4c-0.8,0-1.6-0.1-2.4-0.4     c-3.7-1.4-8.2-3.3-13.4-5.8c-1.2,0.1-2.4,0.2-3.5,0.2c-1.3,0-2.5-0.1-3.8-0.2c0.9,9.2,5.6,18.1,12.5,23.9     c0.9,0.8,1.5,1.9,1.5,3.1v18.1c0,1.4,1.1,2.6,2.5,2.7l27.1,2.4c1.6,0.1,3-1.1,3-2.7V80.9c0-0.8,0.7-1.5,1.5-1.5h9.5     c2.9,0,5.3-2.4,5.3-5.3V61.4c0-0.6,0.5-1,1-1H94C96.8,60.4,98.5,57.3,96.9,55z"></path><path d="M33.6,41.5c4.7,2.3,9.7,4.6,14.1,6.2c2.1,0.8,3.9-1.8,2.4-3.5c-2.3-2.7-3.5-5-4.1-6.7c6.1-3.5,10-8.9,10-14.9     c0-10.6-12-19.1-26.8-19.1S2.5,12.1,2.5,22.7s12,19.1,26.8,19.1C30.8,41.8,32.2,41.7,33.6,41.5z M42.5,19.1c2,0,3.6,1.6,3.6,3.6     c0,2-1.6,3.6-3.6,3.6c-2,0-3.6-1.6-3.6-3.6C38.9,20.7,40.5,19.1,42.5,19.1z M16,26.3c-2,0-3.6-1.6-3.6-3.6c0-2,1.6-3.6,3.6-3.6     c2,0,3.6,1.6,3.6,3.6C19.6,24.7,18,26.3,16,26.3z M25.7,22.7c0-2,1.6-3.6,3.6-3.6c2,0,3.6,1.6,3.6,3.6c0,2-1.6,3.6-3.6,3.6     C27.3,26.3,25.7,24.7,25.7,22.7z"></path></g></g></g></svg>