<svg height='100px' width='100px'  fill="#ffffff" xmlns="http://www.w3.org/2000/svg" viewBox="0 0 64 64" x="0px" y="0px"><title>transportation,vehicle,modern,train,rail</title><g data-name="Layer 2"><circle cx="46" cy="42" r="2"></circle><rect x="16" y="12" width="13" height="14"></rect><path d="M54,46.44V9.56A3.57,3.57,0,0,0,50.44,6H33V4h3.14a1,1,0,0,0,0-2H27.86a1,1,0,0,0,0,2H31V6H13.56A3.57,3.57,0,0,0,10,9.56V46.44A3.57,3.57,0,0,0,13.56,50h2.7L10.14,60.5a1,1,0,0,0,1.73,1L13.92,58,14,58H50l.08,0,2.05,3.52a1,1,0,0,0,1.73-1L47.74,50h2.7A3.57,3.57,0,0,0,54,46.44ZM38,30a1,1,0,0,1,0,2H26a1,1,0,0,1,0-2ZM26,38H38a1,1,0,0,1,0,2H26a1,1,0,0,1,0-2Zm-1-3a1,1,0,0,1,1-1H38a1,1,0,0,1,0,2H26A1,1,0,0,1,25,35ZM14,11a1,1,0,0,1,1-1H30a1,1,0,0,1,1,1V27a1,1,0,0,1-1,1H15a1,1,0,0,1-1-1Zm0,31a4,4,0,1,1,4,4A4,4,0,0,1,14,42Zm1.07,14,1.17-2H47.76l1.17,2Zm31.52-4H17.41l1.17-2H45.43ZM46,46a4,4,0,1,1,4-4A4,4,0,0,1,46,46Zm4-19a1,1,0,0,1-1,1H34a1,1,0,0,1-1-1V11a1,1,0,0,1,1-1H49a1,1,0,0,1,1,1Z"></path><circle cx="18" cy="42" r="2"></circle><rect x="35" y="12" width="13" height="14"></rect></g></svg>