<svg height='100px' width='100px'  fill="#111111" xmlns:x="http://ns.adobe.com/Extensibility/1.0/" xmlns:i="http://ns.adobe.com/AdobeIllustrator/10.0/" xmlns:graph="http://ns.adobe.com/Graphs/1.0/" xmlns="http://www.w3.org/2000/svg" xmlns:xlink="http://www.w3.org/1999/xlink" version="1.1" x="0px" y="0px" viewBox="0 0 100 100" style="enable-background:new 0 0 100 100;" xml:space="preserve"><g><g i:extraneous="self"><g><path d="M66,42.9c1.4,3.2,2.2,6.7,2.2,10.5c0,14.3-11.6,25.9-25.9,25.9c-14.3,0-25.9-11.6-25.9-25.9C16.4,39,28,27.4,42.3,27.4     c3.7,0,7.3,0.8,10.5,2.2l6.3-7.5c-5-2.7-10.7-4.2-16.7-4.2c-19.5,0-35.4,15.9-35.4,35.4c0,12.5,6.6,23.6,16.4,29.8l-5.5,9.7     c-0.5,0.9-0.5,2.1,0,3.1c0.5,0.9,1.6,1.5,2.6,1.5h43.6c1.1,0,2.1-0.6,2.6-1.5c0.5-0.9,0.6-2.1,0-3.1l-5.5-9.7     c9.9-6.3,16.4-17.3,16.4-29.8c0-6-1.5-11.7-4.2-16.7L66,42.9z"></path><path d="M47.4,36c-1.6-0.5-3.4-0.8-5.1-0.8c-10,0-18.1,8.1-18.1,18.1c0,9.9,8.1,18.1,18.1,18.1c9.9,0,18.1-8.1,18.1-18.1     c0-1.8-0.3-3.5-0.7-5.1L47.4,58.4c-3,2.5-7.6,2.1-10.1-0.9c-2.3-2.7-2.2-6.6,0-9.2L47.4,36z"></path><path d="M93,14.2c-0.2-0.6-0.8-1-1.5-1h-9.1V4.1c0-0.6-0.4-1.2-1-1.5c-0.6-0.2-1.3-0.1-1.7,0.3L68.8,13.8     c-0.3,0.3-0.5,0.7-0.5,1.1v6.1L40.3,51.3c-1,1.1-1,2.8,0,3.9c1.1,1.2,2.9,1.2,4,0.1l30.2-28.1h6.1c0.4,0,0.8-0.2,1.1-0.5     l10.9-10.9C93.1,15.5,93.2,14.8,93,14.2z"></path></g></g></g></svg>