<svg height='100px' width='100px'  fill="#111111" xmlns="http://www.w3.org/2000/svg" viewBox="0 0 64 64" x="0px" y="0px"><g><path d="M51.175,45.015A1,1,0,0,0,50,46a1,1,0,0,1-2,0,1,1,0,0,0-2,0,1,1,0,0,1-2,0,1,1,0,0,0-2,0,1,1,0,0,1-2,0V38.107a1.083,1.083,0,0,0-.825-1.092.992.992,0,0,0-.822.222A1,1,0,0,0,38,38V52a1,1,0,0,1-1.515.857l-4.169-2.5a.757.757,0,0,0-.735-.028l-.157.078a.766.766,0,0,0-.1,1.309l6,4.285H52V46.107A1.083,1.083,0,0,0,51.175,45.015Z"></path><path d="M55,43V12H9V44H36V38a3,3,0,0,1,3.5-2.96A3.084,3.084,0,0,1,42,38.107v5.064a3.119,3.119,0,0,1,3,.595,2.994,2.994,0,0,1,4,0c.02-.018.039-.035.059-.051A3.009,3.009,0,0,1,51.5,43.04a2.9,2.9,0,0,1,1.7.96H55ZM29,14h2v2H29Zm-8,0h6v2H21ZM11,14h2v2H11Zm4,26H11V38h4Zm0-4H11V34h4Zm0-4H11V30h4Zm0-4H11V26h4Zm0-4H11V22h4Zm0-4H11V18h4Zm4,22H17V14h2Zm6-2H21V38h4Zm0-4H21V34h4Zm4,4H27V38h2Zm0-4H27V34h2Zm6,0H33V34h2Zm14,4H45V38h4Zm0-4H45V34h4Zm4,4H51V38h2Zm0-4H51V34h2ZM50.8,24.6a1,1,0,0,1-.729.4.966.966,0,0,1-.778-.29L48,23.414l-2.293,2.293a.968.968,0,0,1-.752.292,1.007,1.007,0,0,1-.724-.358L40,20.562l-4.231,5.079a1.007,1.007,0,0,1-.724.358.976.976,0,0,1-.752-.292L32,23.414l-4.293,4.293A1,1,0,0,1,27,28c-.032,0-.065,0-.1,0a1,1,0,0,1-.733-.44l-1.323-1.986L23,27.414V30H53v2H22a1,1,0,0,1-1-1V18h2v6.586l1.293-1.293a1,1,0,0,1,1.539.152l1.323,1.986,4.138-4.138a1,1,0,0,1,1.414,0l2.226,2.226,4.3-5.16a1.037,1.037,0,0,1,1.538,0l4.3,5.16,2.226-2.226a1,1,0,0,1,1.414,0l1.185,1.185L52.2,19.4l1.6,1.2Z"></path><path d="M57,8H7a3,3,0,0,0-3,3V45a3,3,0,0,0,3,3H36V46H8a1,1,0,0,1-1-1V11a1,1,0,0,1,1-1H56a1,1,0,0,1,1,1V45a1,1,0,0,1-1,1H53.991c0,.036.009.071.009.107V48h3a3,3,0,0,0,3-3V11A3,3,0,0,0,57,8Z"></path></g></svg>