<svg height='100px' width='100px'  fill="#111111" xmlns="http://www.w3.org/2000/svg" viewBox="0 0 100 100" x="0px" y="0px"><path d="M39.9 77.9h20.3v3.3H39.9zM50.2 56.8c2.5 0 4.5-2 4.5-4.5 0-2.4-1.8-4.3-4.1-4.5l1.5 3.7c.4 1-.1 2.2-1.1 2.6-.2.1-.5.1-.7.1-.8 0-1.5-.5-1.9-1.3l-1.5-3.7c-.7.8-1.1 1.8-1.1 3-.1 2.6 1.9 4.6 4.4 4.6z"></path><path d="M50 5C25.2 5 5 25.2 5 50s20.2 45 45 45 45-20.2 45-45S74.8 5 50 5zm30.6 31.4l2.4-.9c1-.4 2.2.1 2.6 1.2.4 1-.1 2.2-1.2 2.6l-2.4.9c-.2.1-.5.1-.7.1-.8 0-1.6-.5-1.9-1.3-.3-1 .2-2.2 1.2-2.6zm-7.8-10.9l1.9-1.8c.8-.8 2.1-.7 2.8.1.8.8.7 2.1-.1 2.8l-1.9 1.8c-.4.4-.9.6-1.4.6-.5 0-1-.2-1.4-.6-.7-.8-.6-2.1.1-2.9zm-11.4-7l1-2.4c.4-1 1.6-1.5 2.6-1.1 1 .4 1.5 1.6 1.1 2.6l-1 2.4c-.3.8-1.1 1.2-1.8 1.2-.3 0-.5-.1-.8-.2-1-.3-1.5-1.5-1.1-2.5zM48.2 14c0-1.1.9-2 2-2s2 .9 2 2v2.6c0 1.1-.9 2-2 2s-2-.9-2-2V14zm-6.3 12.4l7 17.5c.4-.1.8-.1 1.2-.1 4.7 0 8.5 3.8 8.5 8.5s-3.8 8.5-8.5 8.5-8.5-3.8-8.5-8.5c0-2.8 1.4-5.4 3.6-6.9l-7-17.5c-.4-1 .1-2.2 1.1-2.6 1.1-.4 2.2.1 2.6 1.1zm-6.6-11.3c1-.4 2.2 0 2.6 1.1l1 2.4c.4 1 0 2.2-1.1 2.6-.3.1-.5.2-.8.2-.8 0-1.5-.5-1.8-1.2l-1-2.4c-.4-1.1.1-2.3 1.1-2.7zm-12.5 8.7c.8-.8 2-.8 2.8-.1l1.9 1.8c.8.8.8 2 .1 2.8-.4.4-.9.6-1.4.6-.5 0-1-.2-1.4-.6l-1.9-1.8c-.8-.7-.8-1.9-.1-2.7zm-8.1 12.9c.4-1 1.5-1.6 2.6-1.2l2.4.9c1 .4 1.6 1.5 1.2 2.6-.3.8-1.1 1.3-1.9 1.3-.2 0-.5 0-.7-.1l-2.4-.9c-1-.4-1.5-1.6-1.2-2.6zm-2.3 15c0-1.1.8-2 1.9-2.1l2.6-.1c1.1 0 2 .8 2.1 1.9s-.8 2-1.9 2.1l-2.6.1h-.1c-1.1 0-2-.8-2-1.9zm51.7 31.5c0 1.1-.9 2-2 2H37.9c-1.1 0-2-.9-2-2v-7.3c0-1.1.9-2 2-2h24.3c1.1 0 2 .9 2 2v7.3zm19.6-14.5H16.3c-1.1 0-2-.9-2-2s.9-2 2-2h67.3c1.1 0 2 .9 2 2s-.8 2-1.9 2zM86 53.6l-2.7-.1c-1.1 0-2-1-1.9-2.1 0-1.1 1-2 2.1-1.9l2.6.1c1.1 0 2 1 1.9 2.1 0 1.1-.9 1.9-2 1.9z"></path></svg>