<svg height='100px' width='100px'  fill="#ffffff" xmlns="http://www.w3.org/2000/svg" xmlns:xlink="http://www.w3.org/1999/xlink" version="1.1" x="0px" y="0px" viewBox="0 0 512 512" style="enable-background:new 0 0 512 512;" xml:space="preserve"><title>Industrial-factory-industry-manufacture-manufacturing</title><path d="M400,80c17.7,0,32-14.3,32-32c0-8.8,7.2-16,16-16h16V16h-16c-17.7,0-32,14.3-32,32c0,8.8-7.2,16-16,16h-8  c-8.8,0-16-7.2-16-16c0-17.7-14.3-32-32-32h-8c-17.7,0-32,14.3-32,32c0,8.8-7.2,16-16,16h-8c-8.8,0-16-7.2-16-16  c0-17.7-14.3-32-32-32h-8c-17.7,0-32,14.3-32,32c0,8.8-7.2,16-16,16h-8c-8.8,0-16-7.2-16-16c0-17.7-14.3-32-32-32h-8  c-17.7,0-32,14.3-32,32v32h16V48c0-8.8,7.2-16,16-16h8c8.8,0,16,7.2,16,16c0,17.7,14.3,32,32,32h8c17.7,0,32-14.3,32-32  c0-8.8,7.2-16,16-16h8c8.8,0,16,7.2,16,16c0,17.7,14.3,32,32,32h8c17.7,0,32-14.3,32-32c0-8.8,7.2-16,16-16h8c8.8,0,16,7.2,16,16  c0,17.7,14.3,32,32,32H400z"></path><rect x="312" y="168" width="24" height="40"></rect><rect x="312" y="256" width="24" height="40"></rect><rect x="240" y="424" width="72" height="56"></rect><polygon points="184,480 224,480 224,408 328,408 328,480 368,480 368,368 184,368 "></polygon><polygon points="107.8,272 60.2,272 58.4,352 109.6,352 "></polygon><polygon points="110,368 58,368 56.2,448 111.8,448 "></polygon><path d="M128,464H40c-4.4,0-8,3.6-8,8v8h104v-8C136,467.6,132.4,464,128,464z"></path><rect x="424" y="416" width="16" height="24"></rect><rect x="424" y="336" width="16" height="24"></rect><rect x="424" y="376" width="16" height="24"></rect><polygon points="104.2,112 63.8,112 62.7,160 105.3,160 "></polygon><polygon points="384,352 384,360 384,480 408,480 408,296 424,296 424,320 440,320 440,296 456,296 456,480 480,480 480,237.6   384,203.4 "></polygon><polygon points="432,203.5 456,212.1 456,181.4 432,171.8 "></polygon><polygon points="105.6,176 62.4,176 60.5,256 107.5,256 "></polygon><rect x="240" y="168" width="24" height="40"></rect><rect x="424" y="456" width="16" height="24"></rect><rect x="480" y="16" width="16" height="16"></rect><path d="M208,184h-32c-13.2,0-24,10.8-24,24v48h-28.5l0.4,16H208v80h160V128H208V184z M208,256h-40v-48c0-4.4,3.6-8,8-8h32V256z   M296,152h56v72h-56V152z M296,240h56v72h-56V240z M224,152h56v72h-56V152z M224,240h56v72h-56V240z"></path><rect x="240" y="256" width="24" height="40"></rect></svg>