<svg height='100px' width='100px'  fill="#ffffff" xmlns="http://www.w3.org/2000/svg" xmlns:xlink="http://www.w3.org/1999/xlink" version="1.1" x="0px" y="0px" viewBox="0 0 100 100" enable-background="new 0 0 100 100" xml:space="preserve"><path d="M63.45,13.347c0-4.045-3.291-7.335-7.336-7.335H43.89c-4.045,0-7.336,3.291-7.336,7.335v12.227  c0,4.045,3.291,7.336,7.336,7.336h12.225c4.045,0,7.336-3.291,7.336-7.336V13.347z M46.332,20.821c0,1.013-0.821,1.834-1.834,1.834  s-1.833-0.821-1.833-1.834v-5.5c0-1.013,0.821-1.833,1.833-1.833s1.834,0.821,1.834,1.833V20.821z M57.335,20.821  c0,1.013-0.821,1.834-1.834,1.834s-1.833-0.821-1.833-1.834v-5.5c0-1.013,0.82-1.833,1.833-1.833s1.834,0.821,1.834,1.833V20.821z"></path><path d="M5.986,36.577v4.417c0,3.839,2.966,6.994,6.727,7.305v-2.552c0-1.013,0.821-1.834,1.834-1.834s1.834,0.821,1.834,1.834  v2.583h7.335v-2.583c0-1.013,0.821-1.834,1.834-1.834c1.012,0,1.833,0.821,1.833,1.834v2.583h5.502v-4.417  c0-2.819,1.075-5.386,2.826-7.335H5.986z"></path><path d="M64.292,36.577c1.75,1.949,2.825,4.516,2.825,7.335v4.417h5.503v-2.583c0-1.013,0.821-1.834,1.834-1.834  s1.833,0.821,1.833,1.834v2.583h7.336v-2.583c0-1.013,0.82-1.834,1.833-1.834s1.834,0.821,1.834,1.834v2.552  c3.759-0.313,6.724-3.467,6.724-7.305v-4.417H64.292z"></path><g><path d="M50,47.43l9.833-9.83c-1.092-0.646-2.36-1.023-3.719-1.023H43.89c-1.358,0-2.627,0.378-3.719,1.023L50,47.43z"></path><path d="M51.297,51.32c-0.358,0.358-0.828,0.537-1.297,0.537s-0.939-0.179-1.297-0.537L37.577,40.195   c-0.646,1.092-1.023,2.36-1.023,3.718v12.226c0,4.045,3.291,7.336,7.336,7.336h12.225c4.045,0,7.336-3.291,7.336-7.336V43.913   c0-1.358-0.377-2.626-1.023-3.718L51.297,51.32z"></path></g><path d="M77.544,92.344H60.797c1.619-1.347,2.653-3.375,2.653-5.642V74.479c0-4.045-3.291-7.336-7.336-7.336H43.89  c-4.045,0-7.336,3.291-7.336,7.336v12.224c0,2.267,1.034,4.295,2.653,5.642h-16.68c-1.013,0-1.833,0.821-1.833,1.834  s0.821,1.834,1.833,1.834h55.017c1.013,0,1.834-0.821,1.834-1.834S78.557,92.344,77.544,92.344z M54.28,79.575h-8.557  c-1.013,0-1.833-0.821-1.833-1.834s0.821-1.834,1.833-1.834h8.557c1.013,0,1.834,0.821,1.834,1.834S55.293,79.575,54.28,79.575z"></path></svg>