<svg xmlns="http://www.w3.org/2000/svg" width="73.375" height="89.437" viewBox="0 0 73.375 89.437"><g transform="translate(-6.31 -2)"><path d="M77.822,28.048h-18.6a5.6,5.6,0,0,1-5.59-5.59V3.864A5.611,5.611,0,0,1,53.963,2H8.173A1.869,1.869,0,0,0,6.31,3.863v85.71a1.869,1.869,0,0,0,1.863,1.863H77.822a1.869,1.869,0,0,0,1.863-1.863V27.709A5.517,5.517,0,0,1,77.822,28.048ZM61.653,33.987a1.864,1.864,0,0,1,1.82,3.253l-13.043,7.3a1.861,1.861,0,0,1-1.8.011L36.5,37.967,24.843,51.43a1.863,1.863,0,1,1-2.817-2.438l12.643-14.6a1.867,1.867,0,0,1,2.3-.419l12.541,6.809ZM18.194,11.293H46.842a1.863,1.863,0,1,1,0,3.727H18.194a1.863,1.863,0,1,1,0-3.727Zm-1.863,11.18a1.862,1.862,0,0,1,1.863-1.863H39.389a1.863,1.863,0,1,1,0,3.727H18.194A1.862,1.862,0,0,1,16.331,22.473ZM25.3,80.332a1.863,1.863,0,0,1-3.727,0V62.322a1.863,1.863,0,0,1,3.727,0Zm13.043,0a1.863,1.863,0,0,1-3.727,0V51.142a1.863,1.863,0,1,1,3.727,0Zm13.043,0a1.863,1.863,0,0,1-3.727,0V54.869a1.863,1.863,0,0,1,3.727,0Zm13.043,0a1.863,1.863,0,1,1-3.727,0V49.279a1.863,1.863,0,1,1,3.727,0Z" transform="translate(0 0)" fill="#111"/><path d="M35.573,24.321h18.6a1.875,1.875,0,0,0,1.323-3.186L36.9,2.539a1.867,1.867,0,0,0-2.031-.391A1.84,1.84,0,0,0,33.71,3.862v18.6A1.869,1.869,0,0,0,35.573,24.321Z" transform="translate(23.653 0.001)" fill="#111"/></g></svg>