<svg xmlns="http://www.w3.org/2000/svg" width="32" height="17" viewBox="0 0 32 17"><path d="M4.819,30.707A1.271,1.271,0,1,1,6.09,32,1.282,1.282,0,0,1,4.819,30.707ZM0,30.707a1.282,1.282,0,0,1,1.271-1.293,1.293,1.293,0,0,1,0,2.586A1.282,1.282,0,0,1,0,30.707Zm7.255-3.663a1.271,1.271,0,1,1,1.271,1.293A1.282,1.282,0,0,1,7.255,27.044Zm-4.819,0a1.271,1.271,0,1,1,1.271,1.293A1.282,1.282,0,0,1,2.436,27.044Zm7.2-3.663a1.271,1.271,0,1,1,1.271,1.293A1.282,1.282,0,0,1,9.639,23.38Zm-4.819,0A1.271,1.271,0,1,1,6.09,24.673,1.282,1.282,0,0,1,4.819,23.38Zm7.255-3.663a1.271,1.271,0,1,1,1.271,1.293A1.282,1.282,0,0,1,12.075,19.717Zm-4.819,0A1.271,1.271,0,1,1,8.526,21.01,1.282,1.282,0,0,1,7.255,19.717ZM14.458,16a1.271,1.271,0,1,1,1.271,1.293A1.282,1.282,0,0,1,14.458,16ZM9.639,16a1.271,1.271,0,1,1,1.271,1.293A1.282,1.282,0,0,1,9.639,16Zm2.436-3.717a1.271,1.271,0,1,1,1.271,1.293A1.282,1.282,0,0,1,12.075,12.283Zm-4.819,0a1.271,1.271,0,1,1,1.271,1.293A1.282,1.282,0,0,1,7.255,12.283ZM9.639,8.62A1.271,1.271,0,1,1,10.91,9.912,1.282,1.282,0,0,1,9.639,8.62Zm-4.819,0A1.271,1.271,0,1,1,6.09,9.912,1.282,1.282,0,0,1,4.819,8.62ZM7.255,4.956A1.271,1.271,0,1,1,8.526,6.249,1.282,1.282,0,0,1,7.255,4.956Zm-4.819,0A1.271,1.271,0,1,1,3.707,6.249,1.282,1.282,0,0,1,2.436,4.956ZM4.819,1.293a1.271,1.271,0,1,1,2.542,0,1.271,1.271,0,1,1-2.542,0ZM0,1.293A1.282,1.282,0,0,1,1.271,0,1.282,1.282,0,0,1,2.542,1.293,1.282,1.282,0,0,1,1.271,2.586,1.282,1.282,0,0,1,0,1.293Z" transform="translate(0 17) rotate(-90)" fill="#00629b"/></svg>