<svg xmlns="http://www.w3.org/2000/svg" width="476" height="905" viewBox="0 0 476 905">
  <path id="BigArrow_Homepage" d="M134.941,868.434c0-20.194,15.934-36.565,35.589-36.565s35.588,16.371,35.588,36.565S190.184,905,170.53,905,134.941,888.629,134.941,868.434ZM0,868.434c0-20.194,15.934-36.565,35.589-36.565s35.588,16.371,35.588,36.565S55.244,905,35.589,905,0,888.629,0,868.434Zm203.152-103.6c0-20.2,15.934-36.566,35.589-36.566s35.589,16.371,35.589,36.566S258.4,801.4,238.742,801.4,203.152,785.026,203.152,764.832Zm-134.941,0c0-20.2,15.934-36.566,35.589-36.566s35.588,16.371,35.588,36.566S123.455,801.4,103.8,801.4,68.212,785.026,68.212,764.832Zm201.67-103.6c0-20.194,15.934-36.565,35.589-36.565s35.589,16.371,35.589,36.565-15.935,36.566-35.589,36.566S269.881,681.424,269.881,661.229Zm-134.941,0c0-20.194,15.934-36.565,35.589-36.565s35.588,16.371,35.588,36.565-15.934,36.566-35.588,36.566S134.941,681.424,134.941,661.229Zm203.152-103.6c0-20.2,15.934-36.566,35.589-36.566s35.589,16.371,35.589,36.566-15.934,36.565-35.589,36.565S338.093,577.821,338.093,557.627Zm-134.941,0c0-20.2,15.934-36.566,35.589-36.566s35.589,16.371,35.589,36.566-15.935,36.565-35.589,36.565S203.152,577.821,203.152,557.627ZM404.822,452.5c0-20.2,15.934-36.566,35.589-36.566S476,432.3,476,452.5s-15.933,36.566-35.589,36.566S404.822,472.7,404.822,452.5Zm-134.941,0c0-20.2,15.934-36.566,35.589-36.566S341.06,432.3,341.06,452.5s-15.935,36.566-35.589,36.566S269.881,472.7,269.881,452.5Zm68.212-105.127c0-20.194,15.934-36.565,35.589-36.565s35.589,16.371,35.589,36.565-15.934,36.566-35.589,36.566S338.093,367.569,338.093,347.373Zm-134.941,0c0-20.194,15.934-36.565,35.589-36.565s35.589,16.371,35.589,36.565-15.935,36.566-35.589,36.566S203.152,367.569,203.152,347.373Zm66.729-103.6c0-20.2,15.934-36.566,35.589-36.566s35.589,16.371,35.589,36.566-15.935,36.565-35.589,36.565S269.881,263.965,269.881,243.771Zm-134.941,0c0-20.2,15.934-36.566,35.589-36.566s35.588,16.371,35.588,36.566-15.934,36.565-35.588,36.565S134.941,263.965,134.941,243.771Zm68.212-103.6c0-20.194,15.934-36.565,35.589-36.565s35.589,16.371,35.589,36.565-15.935,36.566-35.589,36.566S203.152,160.363,203.152,140.168Zm-134.941,0c0-20.194,15.934-36.565,35.589-36.565s35.588,16.371,35.588,36.565-15.934,36.566-35.588,36.566S68.212,160.363,68.212,140.168Zm66.729-103.6C134.941,16.371,150.874,0,170.53,0s35.588,16.371,35.588,36.566S190.184,73.131,170.53,73.131,134.941,56.76,134.941,36.566ZM0,36.566C0,16.371,15.934,0,35.589,0S71.177,16.371,71.177,36.566,55.244,73.131,35.589,73.131,0,56.76,0,36.566Z" fill="#fff" opacity="0.1"/>
</svg>
