<svg xmlns="http://www.w3.org/2000/svg" width="10" height="19" viewBox="0 0 10 19"><path d="M2.835,18.232A.748.748,0,1,1,3.583,19,.758.758,0,0,1,2.835,18.232ZM0,18.232a.758.758,0,0,1,.748-.768A.768.768,0,0,1,.748,19,.758.758,0,0,1,0,18.232Zm4.268-2.175a.748.748,0,1,1,.748.768A.758.758,0,0,1,4.268,16.057Zm-2.835,0a.748.748,0,1,1,.748.768A.758.758,0,0,1,1.433,16.057ZM5.67,13.882a.748.748,0,1,1,.748.768A.758.758,0,0,1,5.67,13.882Zm-2.835,0a.748.748,0,1,1,.748.768A.758.758,0,0,1,2.835,13.882ZM7.1,11.707a.748.748,0,1,1,.748.768A.758.758,0,0,1,7.1,11.707Zm-2.835,0a.748.748,0,1,1,.748.768A.758.758,0,0,1,4.268,11.707ZM8.5,9.5a.748.748,0,1,1,.748.768A.758.758,0,0,1,8.5,9.5ZM5.67,9.5a.748.748,0,1,1,.748.768A.758.758,0,0,1,5.67,9.5ZM7.1,7.293a.748.748,0,1,1,.748.768A.758.758,0,0,1,7.1,7.293Zm-2.835,0a.748.748,0,1,1,.748.768A.758.758,0,0,1,4.268,7.293Zm1.4-2.175a.748.748,0,1,1,.748.768A.758.758,0,0,1,5.67,5.118Zm-2.835,0a.748.748,0,1,1,.748.768A.758.758,0,0,1,2.835,5.118ZM4.268,2.943a.748.748,0,1,1,.748.768A.758.758,0,0,1,4.268,2.943Zm-2.835,0a.748.748,0,1,1,.748.768A.758.758,0,0,1,1.433,2.943ZM2.835.768a.748.748,0,1,1,1.5,0,.748.748,0,1,1-1.5,0ZM0,.768A.758.758,0,0,1,.748,0,.758.758,0,0,1,1.5.768a.758.758,0,0,1-.748.768A.758.758,0,0,1,0,.768Z" fill="#fff"/></svg>