<svg xmlns="http://www.w3.org/2000/svg" width="261" height="497" viewBox="0 0 261 497">
  <path id="Header_arrow" d="M73.991,476.919c0-11.09,8.737-20.08,19.514-20.08s19.514,8.99,19.514,20.08S104.282,497,93.5,497,73.991,488.01,73.991,476.919ZM0,476.919c0-11.09,8.737-20.08,19.514-20.08s19.514,8.99,19.514,20.08S30.291,497,19.514,497,0,488.01,0,476.919Zm111.392-56.9c0-11.091,8.737-20.081,19.514-20.081s19.514,8.99,19.514,20.081-8.737,20.08-19.514,20.08S111.392,431.114,111.392,420.024Zm-73.991,0c0-11.091,8.737-20.081,19.514-20.081s19.514,8.99,19.514,20.081S67.693,440.1,56.916,440.1,37.4,431.114,37.4,420.024Zm110.579-56.9c0-11.09,8.737-20.08,19.514-20.08s19.514,8.991,19.514,20.08-8.737,20.081-19.514,20.081S147.981,374.218,147.981,363.128Zm-73.991,0c0-11.09,8.737-20.08,19.514-20.08s19.514,8.991,19.514,20.08-8.737,20.081-19.514,20.081S73.991,374.218,73.991,363.128Zm111.392-56.9c0-11.091,8.737-20.081,19.514-20.081s19.514,8.99,19.514,20.081-8.737,20.08-19.514,20.08S185.383,317.322,185.383,306.233Zm-73.991,0c0-11.091,8.737-20.081,19.514-20.081s19.514,8.99,19.514,20.081-8.737,20.08-19.514,20.08S111.392,317.322,111.392,306.233ZM221.972,248.5c0-11.091,8.737-20.081,19.514-20.081S261,237.409,261,248.5s-8.737,20.081-19.514,20.081S221.972,259.591,221.972,248.5Zm-73.991,0c0-11.091,8.737-20.081,19.514-20.081s19.514,8.99,19.514,20.081-8.737,20.081-19.514,20.081S147.981,259.591,147.981,248.5Zm37.4-57.733c0-11.09,8.737-20.08,19.514-20.08s19.514,8.99,19.514,20.08-8.737,20.081-19.514,20.081S185.383,201.858,185.383,190.767Zm-73.991,0c0-11.09,8.737-20.08,19.514-20.08s19.514,8.99,19.514,20.08-8.737,20.081-19.514,20.081S111.392,201.858,111.392,190.767Zm36.589-56.9c0-11.091,8.737-20.081,19.514-20.081s19.514,8.99,19.514,20.081-8.737,20.08-19.514,20.08S147.981,144.962,147.981,133.872Zm-73.991,0c0-11.091,8.737-20.081,19.514-20.081s19.514,8.99,19.514,20.081-8.737,20.08-19.514,20.08S73.991,144.962,73.991,133.872Zm37.4-56.9c0-11.09,8.737-20.08,19.514-20.08s19.514,8.99,19.514,20.08-8.737,20.081-19.514,20.081S111.392,88.067,111.392,76.976Zm-73.991,0c0-11.09,8.737-20.08,19.514-20.08s19.514,8.99,19.514,20.08S67.693,97.057,56.916,97.057,37.4,88.067,37.4,76.976Zm36.589-56.9C73.991,8.99,82.727,0,93.5,0s19.514,8.99,19.514,20.081-8.737,20.08-19.514,20.08S73.991,31.171,73.991,20.081ZM0,20.081C0,8.99,8.737,0,19.514,0S39.028,8.99,39.028,20.081s-8.737,20.08-19.514,20.08S0,31.171,0,20.081Z" opacity="0.1"/>
</svg>
